<?xml version="1.0" encoding="UTF-8"?>
<svg id="Layer_1" xmlns="http://www.w3.org/2000/svg" version="1.1" viewBox="0 0 512 512">
  <style>
    path { fill: #000000; }
    @media (prefers-color-scheme: dark) {
      path { fill: #ffffff; }
    }
  </style>

  <!-- Generator: Adobe Illustrator 30.1.0, SVG Export Plug-In . SVG Version: 2.1.1 Build 136)  -->
  <path d="M269.73,335.51l-.15,12.28h-50.49s-.14-6.64-.14-6.64c-10.38,10.73-32.83,8.69-46.47,6.32l-.1-11.88c-6.25,14.12-27.51,14.83-40.61,13.11-8.39-1.1-16.53-4.51-20.69-12.42-3.62,8.37-13.22,11.02-21.7,11.52h-42.64s-10.98-22.65-10.98-22.65v-65.51s9.7-.08,9.7-.08l-9.69-29.64-.02-65.59,42.64.04c5.01,0,9.61,1.14,14.09,2.92,3.87,1.75,6.82,4.21,9.13,7.68l.12-10.63,28.12-.02,4.94,3.15v41.39c2.29.54,4.94.59,7.11-.79,1.76-1.12,2.75-3.54,2.75-5.8l.06-37.94h28.2s.12,7.43.12,7.43c5.38-5.89,13.09-8.19,21.11-8.85s17.37-.03,24.44,1.63c.44.1.94.78,1.15.88.27.12.6-.52.88-1.1l49.63-.02,23.59,25.06.09-25.05h80.85s5.55,3.22,5.55,3.22c11.02-6.48,28.73-5.49,40.94-2.98l5.93,4.7c7.49-5.75,17.59-6.81,27.01-6.54,5.68.16,11.09.6,16.66,2.01v21.57s-7.25,4.56-7.25,4.56l-.21.47c7.84,4.35,12.69,9.4,12.89,18.64.12,5.24-2.04,8.9-4.83,12.99l-23.77,34.96c7.85.14,15.45.09,23.16,2.12l.04,21.5-7.23,4.64c-.07-.05-.17.48-.08.53,7.69,4.36,13.11,9.68,12.71,19.58-.19,4.69-2.03,8.33-4.84,11.93l-17.65,22.64c-2.19,2.8-5.4,4.47-8.65,5.71-10.74,4.13-26.5,2.94-37.83.86l-.15-5.7c-5.03,4.66-15.52,6.02-22.06,6.02l-93.51.02-21.83-12.28ZM171.39,204.58l.11-12.71c4.47,8.12,11.01,10.68,19.23,13.86,2.18.84,6.68,2.51,6.09,5.13-.13.58-.85,1.24-1.54,1.86l-4.84.56c-6.37-.24-12.23-1.4-18.57-3.65l-.02,18.6c8.48,1.47,16.71,2.17,25.18,1.64,5.13-.42,10.02-1.22,14.68-3.26,4.38-1.82,7.49-4.67,10.02-8.79l.08,10.55h25.32s0-62.63,0-62.63h-25.4s-.03,36.37-.03,36.37c-5.3-8.16-11.55-10.02-19.96-13.64-2.15-.9-6.8-3.03-5.83-5.75.24-.68,1.07-1.27,1.87-1.78l4.37-.28c5.35.47,10.38,1.57,15.63,3.49v-18.41c-7.64-1.54-15.21-1.94-22.91-1.51-4.86.45-9.48,1.29-13.83,3.35-4.34,1.96-7.23,5.09-9.54,9.35l-.08-11.2h-25.32s-.07,37.19-.07,37.19c0,2.59-1.44,5.3-3.6,6.44-3.23,1.7-7.37,1.7-10.54-.12-2.09-1.2-3.33-3.92-3.34-6.44l-.07-37.13h-25.4s0,14.02,0,14.02l-1.16.12c-.22.02-.35-.62-.43-.9-1.24-4.52-4.56-7.81-8.77-9.91-4.9-2.4-10.1-3.16-15.69-3.34h-39.89s0,62.69,0,62.69l44.89-.09c5.21-.01,9.98-1.58,14.34-3.83,4.46-2.68,7.13-6.48,7.84-11.97,2.04,6.44,5.99,11.35,12.08,14.01,8.94,3.9,21.29,4.19,30.86,2.95,10.24-1.32,19.36-5.49,22.74-15.92.79-2.85,1.45-5.75,1.48-8.92ZM469.33,184.15v-18.41c-8.74-1.69-17.18-2.09-25.79-1.23-4.19.61-8.13,1.5-11.78,3.43-6.01,2.97-9.38,8.58-9.82,15.14-.46,6.89,2.29,12.95,8.09,16.83,6.72,4.5,12.51,5.24,17.23,8.35.74.49,1.3,1.78,1.15,2.55s-.92,1.4-1.67,1.94c-6.08,1.48-15.19-.41-21.26-2.38.21-12.09-9.29-16.98-19.03-20.86-2.4-1.1-7.91-2.88-8.3-5.68-.1-.68.34-1.59.82-2.33,1.64-.57,3.1-.78,4.88-.82,5.64.33,10.91,1.58,16.23,3.49v-18.38c-7.61-1.55-15.13-1.94-22.78-1.51-4.87.43-9.53,1.26-13.89,3.33-4.7,2.12-7.77,5.55-9.98,10.38l-.17-12.22h-51.96s0,62.69,0,62.69h75.11c5.83-.18,11.24-.51,16.66-2.09,4.29-1.24,7.56-3.44,10.25-7.19l.13,9.14c8.7,1.48,17.2,2.23,25.87,1.55,11.52-.91,24.7-5.24,25.4-18.77.66-12.89-9.83-17.89-19.9-21.94-2.74-1.1-9.74-3.73-6.7-7.51,1.45-.7,3.01-.91,4.71-.94,5.66.25,10.92,1.49,16.48,3.48ZM319.13,228.4v-62.66s-23.81,0-23.81,0l-.13,27.26-25.66-27.27h-20.34s0,62.69,0,62.69h23.74s.12-27.29.12-27.29l25.7,27.33,20.38-.05ZM279.29,250.46c.28-9.24-16.43-9.21-15.08-11.92.98-1.95,9.93.18,12.16.77l-.02-8.45c-7.33-1.2-26.85-2.53-26.87,8.33-.01,6.08,6.94,8.07,11.91,9.53,1.02.3,2.15.74,2.81,1.65-.65,2.38-11.68.1-13.88-.58l-.04,8.51c7.05,1.19,28.69,2.8,29.01-7.84ZM247.28,230.77h-14.67v27.64h14.67v-27.64ZM171.37,299.85l.13-12.68c4.36,8.17,11.05,10.66,19.17,13.83,2.07.95,6.71,2.42,6.14,5.13-.12.58-.85,1.26-1.51,1.84l-3.76.61c-6.71-.08-12.98-1.26-19.68-3.64l-.03,18.58c8.49,1.49,16.73,2.16,25.23,1.64,5.23-.43,10.2-1.26,14.92-3.37,4.25-1.83,7.28-4.65,9.74-8.69l.08,10.6h25.31s0-62.69,0-62.69h-25.4s-.03,36.4-.03,36.4c-5.23-8.13-11.61-10.06-19.96-13.64-2.18-.93-6.81-2.98-5.83-5.77.22-.63,1.09-1.25,1.88-1.77l4.37-.28c5.39.48,10.42,1.6,15.64,3.53v-18.43c-8.38-1.65-16.61-2.07-24.98-1.31-4.35.58-8.42,1.47-12.25,3.39-4.13,1.97-6.79,5.01-9.06,9.1l-.08-11.22h-25.31s-.05,37.18-.05,37.18c0,2.58-1.37,4.79-3.14,6.31-3.57,1.92-7.73,1.93-11.29,0-1.83-1.54-3.07-3.82-3.08-6.43l-.05-37.06h-25.4s0,14,0,14c-.53.06-1.03.08-1.4.04-1.05-4.82-4.15-8-8.29-10.4-4.65-2.24-9.62-3.55-15.03-3.56l-41.22-.07v62.68s43.89,0,43.89,0c5.64-.32,10.91-1.31,15.6-4.15,4.36-2.57,6.89-6.46,7.58-11.8,3.4,11.18,12.15,15.65,23.08,17.01,6.76.84,13.45.85,20.2-.06,9.58-1.28,18.61-5.26,22.04-14.93,1.1-3.12,1.79-6.39,1.82-9.91ZM469.33,279.44v-18.42c-8.73-1.68-17.16-2.03-25.74-1.22-11.06,1.4-20.77,6.28-21.64,18.53-.52,7.24,2.61,13.56,8.86,17.38,3.48,2.13,7.19,3.69,11.07,5.18,1.97.76,7.14,2.65,6.55,5.16-.15.62-.8,1.29-1.41,1.87-5.85,1.69-15.58-.3-21.52-2.28.18-11.9-9.01-16.82-18.63-20.7-2.72-1.27-11.24-3.74-8.02-8,1.32-.64,2.76-.92,4.31-1.02,5.87.25,11.32,1.53,16.92,3.51v-18.39c-8.31-1.64-16.53-2.03-24.87-1.31-4.34.58-8.43,1.45-12.27,3.36-4.47,2.14-7.33,5.48-9.51,10.1l-.18-12.15h-51.94s0,62.62,0,62.62h77.44c5.35-.3,10.27-.72,15.2-2.32,3.96-1.28,6.86-3.47,9.39-6.96l.12,9.18c8.9,1.5,17.61,2.25,26.47,1.48,11.53-1,24.36-5.55,24.8-19.08.2-6.26-2.5-11.67-7.61-15.32-6.99-5-13.27-5.88-18.27-9.31-1.33-.92-2.07-2.97-.8-4.18,3.23-3.06,16.67.51,21.28,2.27ZM319.13,323.67v-62.67s-23.81,0-23.81,0l-.12,27.31-25.69-27.31h-20.31s0,62.68,0,62.68h23.74s.1-27.27.1-27.27l25.62,27.27h20.48Z"/>
  <g>
    <path d="M103.1,301.83c-4.12-5.51-6.85-6.65-13.08-8.66,2.41-.94,4.8-2.04,6.84-3.72,5.55-4.56,3.68-8.61,6.21-7.81l.02,20.19Z"/>
    <path d="M393.29,307.57l-21.42-.05-25.33-.08v-7.47s23.93,0,23.93,0v-15.48s-23.89-.02-23.89-.02l-.04-6.48h26.37c-1.15,13.06,7.82,18.04,18.51,21.65,2.37.96,7.54,2.2,7.39,5.13-.11,2.19-3.35,2.81-5.53,2.8Z"/>
    <g>
      <path d="M76.97,301.25c1.38,1.76,1.32,3.95.39,5.72-2.42,4.57-9.71,2.82-14.85,3.17l-.02-11.22h9.3c1.87.01,3.99.8,5.19,2.33Z"/>
      <path d="M75.59,276.31c1.81,1.68,1.87,4.19.98,6.29-1.96,4.62-9.76,3.02-14.14,3.31l-.02-11.32h8.38c1.62,0,3.53.54,4.8,1.72Z"/>
    </g>
  </g>
  <g>
    <g>
      <path d="M76.81,205.73c1.5,1.72,1.5,3.88.63,5.75-.72,1.54-2.67,3.14-4.78,3.17l-10.14.13-.05-11.22h9.31c1.78.01,3.84.79,5.03,2.16Z"/>
      <path d="M75.52,181.1c1.73,1.6,1.84,3.9,1.06,5.92-1.89,4.85-9.64,3.14-14.09,3.42l.03-11.12,7.95.02c1.71,0,3.71.53,5.06,1.77Z"/>
    </g>
    <path d="M103.1,206.48c-4.31-5.51-6.36-6.31-12.84-8.6,5.41-2.37,9.73-5.04,11.37-11.18.13-.48,1.45-.49,1.45.04l.02,19.73Z"/>
    <path d="M394.92,212.09l-48.23-.04-.02-7.34h23.87s0-15.56,0-15.56l-23.86-.03-.04-6.33,26.2.02c-1.15,13.06,7.95,18.01,18.3,21.52,2.19.77,4.33,1.54,6.25,2.75,1.23.78,1.86,2.5.74,3.64-.58.6-1.96,1.36-3.22,1.36Z"/>
  </g>
</svg>