<?xml version="1.0"?>
<svg id="Layer_1" xmlns="http://www.w3.org/2000/svg" version="1.1" viewBox="0 0 33.63 31.75">
  
  <defs>
    
  </defs>
  <path class="st0" d="M6.49,15.75c0-1.83.53-3.62,1.53-5.15,1-1.54,2.42-2.75,4.1-3.5,1.68-.75,3.54-1.01,5.36-.73,1.82.27,3.52,1.06,4.9,2.27s2.38,2.79,2.88,4.55.48,3.62-.07,5.37c-.54,1.75-1.58,3.3-2.99,4.48s-3.13,1.92-4.96,2.15v-7.05h2.39c.32,0,.62-.13.85-.35.22-.22.35-.52.35-.84s-.13-.62-.35-.84c-.22-.22-.53-.35-.85-.35h-2.39v-2.37c0-.31.13-.62.35-.84s.53-.35.85-.35h.6c.32,0,.62-.13.85-.35.22-.22.35-.52.35-.84s-.13-.62-.35-.84c-.22-.22-.53-.35-.85-.35h-.6c-.95,0-1.86.38-2.54,1.04-.67.67-1.05,1.57-1.05,2.52v2.37h-2.39c-.32,0-.62.12-.85.35-.22.22-.35.52-.35.84s.13.62.35.84.53.35.85.35h2.39v7.05c-2.31-.29-4.44-1.41-5.98-3.14-1.54-1.74-2.39-3.97-2.39-6.28h.01ZM16.06,27.62c6.6,0,11.95-5.31,11.95-11.87S22.66,3.87,16.06,3.87,4.1,9.19,4.1,15.75s5.35,11.87,11.95,11.87h.01Z"></path>
</svg>