<?xml version="1.0"?>
<svg id="Layer_1" xmlns="http://www.w3.org/2000/svg" version="1.1" viewBox="0 0 33.63 31.75">
  
  <defs>
    
  </defs>
  <path class="st0" d="M17.05,4.01c-3.25,0-3.65.02-4.93.07-1.28.06-2.14.26-2.9.55-.8.3-1.52.77-2.12,1.37-.61.59-1.08,1.31-1.38,2.1-.3.76-.49,1.61-.56,2.88-.06,1.26-.07,1.66-.07,4.89s.02,3.63.07,4.89c.06,1.26.26,2.13.56,2.88.3.79.77,1.51,1.38,2.1.6.61,1.32,1.07,2.12,1.37.76.29,1.63.49,2.9.55,1.27.06,1.68.07,4.93.07s3.65-.02,4.93-.07c1.27-.06,2.14-.26,2.9-.55.8-.3,1.52-.77,2.12-1.37.61-.59,1.08-1.31,1.38-2.1.29-.76.49-1.62.56-2.88.06-1.26.07-1.66.07-4.89s-.02-3.63-.07-4.89c-.06-1.26-.27-2.13-.56-2.88-.3-.79-.77-1.51-1.38-2.1-.59-.61-1.32-1.08-2.12-1.37-.76-.29-1.63-.49-2.9-.55s-1.68-.07-4.93-.07ZM17.05,6.14c3.19,0,3.57.02,4.83.07,1.16.05,1.8.25,2.22.41.52.19.99.49,1.38.89.4.38.7.85.89,1.36.16.42.36,1.05.41,2.2.05,1.25.07,1.63.07,4.8s-.02,3.55-.07,4.8c-.06,1.16-.26,1.78-.42,2.2-.23.56-.48.95-.9,1.37-.39.39-.86.69-1.38.88-.42.16-1.06.36-2.23.41-1.27.05-1.64.07-4.84.07s-3.57-.02-4.84-.07c-1.16-.06-1.81-.26-2.23-.42-.57-.22-.96-.48-1.37-.89s-.69-.82-.89-1.37c-.17-.41-.36-1.05-.42-2.21-.04-1.24-.06-1.63-.06-4.79s.02-3.55.06-4.81c.06-1.16.25-1.8.42-2.21.21-.56.47-.95.89-1.37.42-.41.81-.68,1.37-.89.42-.16,1.05-.36,2.21-.41,1.27-.05,1.64-.06,4.84-.06l.05.03h.01ZM17.05,9.78c-.81,0-1.6.16-2.35.46-.74.31-1.42.75-1.99,1.32s-1.02,1.24-1.33,1.98c-.31.74-.47,1.53-.47,2.33s.16,1.59.47,2.33.76,1.41,1.33,1.98,1.25,1.01,1.99,1.32,1.54.46,2.35.46,1.6-.16,2.35-.46c.74-.31,1.42-.75,1.99-1.32s1.02-1.24,1.33-1.98.47-1.53.47-2.33-.16-1.59-.47-2.33-.76-1.41-1.33-1.98-1.25-1.01-1.99-1.32c-.74-.31-1.54-.46-2.35-.46ZM17.05,19.83c-2.2,0-3.98-1.77-3.98-3.96s1.78-3.96,3.98-3.96,3.98,1.77,3.98,3.96-1.78,3.96-3.98,3.96ZM24.87,9.54c0,.38-.15.74-.42,1.01s-.63.42-1.02.42c-.19,0-.37-.04-.55-.11-.17-.07-.33-.18-.47-.31-.13-.13-.24-.29-.31-.46s-.11-.36-.11-.54.04-.37.11-.54.18-.33.31-.46.29-.24.47-.31c.17-.07.36-.11.55-.11.79,0,1.44.64,1.44,1.42h0Z"></path>
</svg>